<?plantuml 1.2026.2?><svg xmlns="http://www.w3.org/2000/svg" xmlns:xlink="http://www.w3.org/1999/xlink" contentStyleType="text/css" data-diagram-type="SEQUENCE" height="428px" preserveAspectRatio="none" style="width:677px;height:428px;background:#FFFFFF;" version="1.1" viewBox="0 0 677 428" width="677px" zoomAndPan="magnify"><defs/><g><rect fill="none" height="155.5938" style="stroke:#000000;stroke-width:1.5;" width="660.6763" x="10" y="173.3125"/><g class="participant-lifeline" data-entity-uid="part1" data-qualified-name="A" id="part1-lifeline"><g><title>Warehouse Associate</title><rect fill="#000000" fill-opacity="0.00000" height="263.2969" width="8" x="87.0894" y="82.6094"/><line style="stroke:#181818;stroke-width:0.5;stroke-dasharray:5,5;" x1="91" x2="91" y1="82.6094" y2="345.9063"/></g></g><g class="participant-lifeline" data-entity-uid="part2" data-qualified-name="S" id="part2-lifeline"><g><title>Warehouse System</title><rect fill="#000000" fill-opacity="0.00000" height="263.2969" width="8" x="340.8999" y="82.6094"/><line style="stroke:#181818;stroke-width:0.5;stroke-dasharray:5,5;" x1="344.8208" x2="344.8208" y1="82.6094" y2="345.9063"/></g></g><g class="participant-lifeline" data-entity-uid="part3" data-qualified-name="P" id="part3-lifeline"><g><title>Label Printer</title><rect fill="#000000" fill-opacity="0.00000" height="263.2969" width="8" x="609.9868" y="82.6094"/><line style="stroke:#181818;stroke-width:0.5;stroke-dasharray:5,5;" x1="613.2974" x2="613.2974" y1="82.6094" y2="345.9063"/></g></g><g class="participant participant-head" data-entity-uid="part1" data-qualified-name="A" id="part1-head"><text fill="#000000" font-family="sans-serif" font-size="14" lengthAdjust="spacing" textLength="136.1787" x="20" y="79.5332">Warehouse Associate</text><ellipse cx="91.0894" cy="13.5" fill="#E2E2F0" rx="8" ry="8" style="stroke:#181818;stroke-width:0.5;"/><path d="M91.0894,21.5 L91.0894,48.5 M78.0894,29.5 L104.0894,29.5 M91.0894,48.5 L78.0894,63.5 M91.0894,48.5 L104.0894,63.5" fill="none" style="stroke:#181818;stroke-width:0.5;"/></g><g class="participant participant-tail" data-entity-uid="part1" data-qualified-name="A" id="part1-tail"><text fill="#000000" font-family="sans-serif" font-size="14" lengthAdjust="spacing" textLength="136.1787" x="20" y="359.4395">Warehouse Associate</text><ellipse cx="91.0894" cy="371.0156" fill="#E2E2F0" rx="8" ry="8" style="stroke:#181818;stroke-width:0.5;"/><path d="M91.0894,379.0156 L91.0894,406.0156 M78.0894,387.0156 L104.0894,387.0156 M91.0894,406.0156 L78.0894,421.0156 M91.0894,406.0156 L104.0894,421.0156" fill="none" style="stroke:#181818;stroke-width:0.5;"/></g><g class="participant participant-head" data-entity-uid="part2" data-qualified-name="S" id="part2-head"><rect fill="#E2E2F0" height="31.6094" rx="2.5" ry="2.5" style="stroke:#181818;stroke-width:0.5;" width="136.1582" x="276.8208" y="50"/><text fill="#000000" font-family="sans-serif" font-size="14" lengthAdjust="spacing" textLength="122.1582" x="283.8208" y="71.5332">Warehouse System</text></g><g class="participant participant-tail" data-entity-uid="part2" data-qualified-name="S" id="part2-tail"><rect fill="#E2E2F0" height="31.6094" rx="2.5" ry="2.5" style="stroke:#181818;stroke-width:0.5;" width="136.1582" x="276.8208" y="344.9063"/><text fill="#000000" font-family="sans-serif" font-size="14" lengthAdjust="spacing" textLength="122.1582" x="283.8208" y="366.4395">Warehouse System</text></g><g class="participant participant-head" data-entity-uid="part3" data-qualified-name="P" id="part3-head"><rect fill="#E2E2F0" height="31.6094" rx="2.5" ry="2.5" style="stroke:#181818;stroke-width:0.5;" width="93.3789" x="567.2974" y="50"/><text fill="#000000" font-family="sans-serif" font-size="14" lengthAdjust="spacing" textLength="79.3789" x="574.2974" y="71.5332">Label Printer</text></g><g class="participant participant-tail" data-entity-uid="part3" data-qualified-name="P" id="part3-tail"><rect fill="#E2E2F0" height="31.6094" rx="2.5" ry="2.5" style="stroke:#181818;stroke-width:0.5;" width="93.3789" x="567.2974" y="344.9063"/><text fill="#000000" font-family="sans-serif" font-size="14" lengthAdjust="spacing" textLength="79.3789" x="574.2974" y="366.4395">Label Printer</text></g><g class="message" data-entity-1="part1" data-entity-2="part2" id="msg1"><polygon fill="#181818" points="332.8999,110.9609,342.8999,114.9609,332.8999,118.9609,336.8999,114.9609" style="stroke:#181818;stroke-width:1;"/><line style="stroke:#181818;stroke-width:1;" x1="91.0894" x2="338.8999" y1="114.9609" y2="114.9609"/><text fill="#000000" font-family="sans-serif" font-size="13" lengthAdjust="spacing" textLength="229.8105" x="98.0894" y="110.1045">Request shipping label for packed order</text></g><g class="message" data-entity-1="part2" data-entity-2="part2" id="msg2"><line style="stroke:#181818;stroke-width:1;" x1="344.8999" x2="386.8999" y1="145.3125" y2="145.3125"/><line style="stroke:#181818;stroke-width:1;" x1="386.8999" x2="386.8999" y1="145.3125" y2="158.3125"/><line style="stroke:#181818;stroke-width:1;" x1="345.8999" x2="386.8999" y1="158.3125" y2="158.3125"/><polygon fill="#181818" points="355.8999,154.3125,345.8999,158.3125,355.8999,162.3125,351.8999,158.3125" style="stroke:#181818;stroke-width:1;"/><text fill="#000000" font-family="sans-serif" font-size="13" lengthAdjust="spacing" textLength="255.0869" x="351.8999" y="140.4561">Validate shipment readiness and permission</text></g><path d="M10,173.3125 L70.1709,173.3125 L70.1709,181.6641 L60.1709,191.6641 L10,191.6641 L10,173.3125" fill="#EEEEEE" style="stroke:#000000;stroke-width:1.5;"/><rect fill="none" height="155.5938" style="stroke:#000000;stroke-width:1.5;" width="660.6763" x="10" y="173.3125"/><text fill="#000000" font-family="sans-serif" font-size="13" font-weight="bold" lengthAdjust="spacing" textLength="15.1709" x="25" y="187.8076">alt</text><text fill="#000000" font-family="sans-serif" font-size="11" font-weight="bold" lengthAdjust="spacing" textLength="92.313" x="85.1709" y="186.7314">[Printer available]</text><g class="message" data-entity-1="part2" data-entity-2="part3" id="msg3"><polygon fill="#181818" points="601.9868,210.0156,611.9868,214.0156,601.9868,218.0156,605.9868,214.0156" style="stroke:#181818;stroke-width:1;"/><line style="stroke:#181818;stroke-width:1;" x1="344.8999" x2="607.9868" y1="214.0156" y2="214.0156"/><text fill="#000000" font-family="sans-serif" font-size="13" lengthAdjust="spacing" textLength="111.2998" x="351.8999" y="209.1592">Send label print job</text></g><g class="message" data-entity-1="part3" data-entity-2="part2" id="msg4"><polygon fill="#181818" points="355.8999,240.3672,345.8999,244.3672,355.8999,248.3672,351.8999,244.3672" style="stroke:#181818;stroke-width:1;"/><line style="stroke:#181818;stroke-width:1;stroke-dasharray:2,2;" x1="349.8999" x2="612.9868" y1="244.3672" y2="244.3672"/><text fill="#000000" font-family="sans-serif" font-size="13" lengthAdjust="spacing" textLength="83.1035" x="361.8999" y="239.5107">Print accepted</text></g><g class="message" data-entity-1="part2" data-entity-2="part1" id="msg5"><polygon fill="#181818" points="102.0894,270.7188,92.0894,274.7188,102.0894,278.7188,98.0894,274.7188" style="stroke:#181818;stroke-width:1;"/><line style="stroke:#181818;stroke-width:1;stroke-dasharray:2,2;" x1="96.0894" x2="343.8999" y1="274.7188" y2="274.7188"/><text fill="#000000" font-family="sans-serif" font-size="13" lengthAdjust="spacing" textLength="119.9453" x="108.0894" y="269.8623">Confirm label printed</text></g><line style="stroke:#000000;stroke-width:1;stroke-dasharray:2,2;" x1="10" x2="670.6763" y1="283.7188" y2="283.7188"/><text fill="#000000" font-family="sans-serif" font-size="11" font-weight="bold" lengthAdjust="spacing" textLength="105.7515" x="15" y="295.1377">[Printer unavailable]</text><g class="message" data-entity-1="part2" data-entity-2="part1" id="msg6"><polygon fill="#181818" points="102.0894,316.9063,92.0894,320.9063,102.0894,324.9063,98.0894,320.9063" style="stroke:#181818;stroke-width:1;"/><line style="stroke:#181818;stroke-width:1;stroke-dasharray:2,2;" x1="96.0894" x2="343.8999" y1="320.9063" y2="320.9063"/><text fill="#000000" font-family="sans-serif" font-size="13" lengthAdjust="spacing" textLength="175.5762" x="108.0894" y="316.0498">Show recoverable printer error</text></g><?plantuml-src NP0nRiCm34LtdOB8dWjuA61apM1KG3ip4bEpbIMLb5Fqzc7a14Wxyxt_FuYX5O7TEmhDPLM2KRK4naOxG8NHLPJ6WIlczepvNssqTCR_POvueWIJS6ua7PYS6s7_0dw0L_fUIHlepBLo_e3KwRDjg1Y-A4AHIEBydN_3nD76T64XonV2o9bK0NE4IhAmAfViCBL7A-05sP8JEO0UDGtWoVYjhjum-2mdEq-mtwgw2nW2rKPn4-qo3d0e-SooFCi6KB8tF0hN_AzoC_rSVcnnA1UIs-qk2v184MUBhW00?></g></svg>